<?xml version="1.0" standalone="no"?>
<!DOCTYPE svg PUBLIC "-//W3C//DTD SVG 20010904//EN"
 "http://www.w3.org/TR/2001/REC-SVG-20010904/DTD/svg10.dtd">
<svg version="1.0" xmlns="http://www.w3.org/2000/svg"
 width="604.000000pt" height="604.000000pt" viewBox="0 0 604.000000 604.000000"
 preserveAspectRatio="xMidYMid meet">
<metadata>
Created by potrace 1.14, written by Peter Selinger 2001-2017
</metadata>
<g transform="translate(0.000000,604.000000) scale(0.100000,-0.100000)"
fill="#000000" stroke="none">
<path d="M1072 5988 c-17 -17 -15 -29 8 -58 l20 -25 0 48 c0 48 -7 56 -28 35z"/>
<path d="M1274 5828 c-4 -6 -10 -47 -12 -90 l-5 -78 74 -112 74 -112 9 100 8
99 -47 75 c-26 41 -55 87 -64 102 -18 31 -26 34 -37 16z"/>
<path d="M4021 5782 c-51 -44 -141 -154 -141 -172 0 -5 24 -16 53 -25 176 -58
459 -191 629 -298 58 -37 110 -67 114 -67 4 0 -75 84 -177 186 -101 102 -183
190 -182 195 2 5 -4 9 -13 9 -8 0 -12 5 -9 10 3 6 -1 10 -10 10 -9 0 -13 5
-10 10 3 6 -1 10 -10 10 -9 0 -13 5 -10 10 3 6 -1 10 -10 10 -9 0 -13 5 -10
10 3 6 -2 10 -11 10 -10 0 -14 3 -10 7 8 8 -113 133 -129 133 -5 0 -34 -22
-64 -48z"/>
<path d="M1582 5350 c-5 -14 -13 -56 -16 -95 l-7 -70 71 -110 c39 -60 75 -114
79 -118 8 -8 24 106 25 174 0 22 -9 48 -24 69 -28 39 -44 65 -59 95 -5 11 -21
34 -35 50 l-24 30 -10 -25z"/>
<path d="M1360 5180 c0 -5 -7 -10 -16 -10 -28 0 -247 -185 -380 -322 -415
-428 -693 -997 -773 -1583 -7 -44 -11 -226 -11 -410 0 -283 2 -347 20 -451
131 -795 576 -1480 1260 -1938 147 -98 457 -252 626 -310 1013 -346 2123 -105
2902 630 118 111 330 353 259 296 -14 -12 -16 -11 -12 8 3 18 2 20 -10 10 -12
-10 -13 -8 -10 10 3 18 2 20 -10 10 -12 -10 -13 -8 -10 10 3 18 2 20 -10 10
-12 -10 -13 -8 -10 8 2 12 -3 26 -11 32 -7 7 -11 16 -8 21 3 5 0 8 -8 7 -7 -2
-12 3 -11 9 2 7 -3 12 -10 10 -6 -1 -11 4 -10 10 2 7 -3 12 -10 10 -6 -1 -11
4 -10 10 2 7 -3 12 -10 10 -6 -1 -11 4 -10 10 2 7 -3 12 -10 10 -6 -1 -11 4
-10 10 2 7 -3 12 -10 10 -6 -1 -11 4 -10 10 2 7 -3 12 -10 10 -6 -1 -11 4 -9
11 1 8 -2 11 -9 7 -7 -5 20 -38 71 -90 44 -45 74 -82 66 -82 -8 0 -14 5 -13
11 1 6 -4 10 -10 9 -7 -2 -12 3 -10 10 1 6 -4 11 -10 10 -7 -2 -12 3 -10 10 1
6 -4 11 -10 10 -7 -2 -12 3 -10 10 1 6 -4 11 -10 10 -7 -2 -12 3 -10 10 1 6
-4 11 -10 10 -7 -2 -12 3 -10 10 1 6 -4 11 -11 9 -8 -1 -11 1 -8 6 3 5 -5 19
-19 32 -14 13 -22 30 -20 42 3 16 2 18 -10 8 -12 -10 -13 -8 -10 10 3 18 2 20
-10 10 -12 -10 -13 -8 -10 10 3 18 2 20 -10 10 -12 -10 -13 -8 -10 10 3 18 2
20 -10 10 -12 -10 -13 -8 -10 10 3 18 2 20 -10 10 -12 -10 -13 -8 -10 10 3 18
2 20 -10 10 -12 -10 -13 -8 -10 10 3 18 2 20 -10 10 -12 -10 -13 -8 -10 10 3
18 2 20 -10 10 -12 -10 -13 -8 -10 10 3 18 2 20 -10 10 -12 -10 -13 -8 -10 10
3 18 2 20 -10 10 -12 -10 -13 -8 -10 10 3 18 2 20 -10 10 -12 -10 -13 -8 -10
10 3 18 2 20 -10 10 -12 -10 -13 -8 -10 8 2 12 -6 29 -20 42 -14 13 -22 27
-19 32 3 5 0 7 -8 6 -7 -2 -12 3 -11 9 2 7 -3 12 -10 10 -6 -1 -11 4 -10 10 2
7 -3 12 -10 10 -6 -1 -11 4 -10 10 2 7 -3 12 -10 10 -6 -1 -11 4 -10 10 2 7
-3 12 -10 10 -6 -1 -11 4 -10 10 2 7 -3 12 -10 10 -6 -1 -11 3 -10 9 1 6 -5
11 -13 11 -8 0 22 -37 66 -82 51 -52 78 -85 71 -90 -7 -4 -10 -1 -9 7 2 7 -3
12 -9 11 -7 -2 -12 3 -10 10 1 6 -4 11 -10 10 -7 -2 -12 3 -10 10 1 6 -4 11
-10 10 -7 -2 -12 3 -10 10 1 6 -4 11 -10 10 -7 -2 -12 3 -10 10 1 6 -4 11 -10
10 -7 -2 -12 3 -10 10 1 6 -4 11 -10 10 -7 -2 -12 3 -10 10 1 6 -4 11 -11 9
-8 -1 -11 2 -8 7 3 5 -1 14 -8 21 -8 6 -13 20 -11 32 3 16 2 18 -10 8 -12 -10
-13 -8 -10 10 3 18 2 20 -10 10 -12 -10 -13 -8 -10 10 3 18 2 20 -10 10 -12
-10 -13 -8 -10 10 3 18 2 20 -10 10 -12 -10 -13 -8 -10 10 3 18 2 20 -10 10
-12 -10 -13 -8 -10 10 3 18 2 20 -10 10 -12 -10 -13 -8 -10 10 3 18 2 20 -10
10 -12 -10 -13 -8 -10 10 3 18 2 20 -10 10 -12 -10 -13 -8 -10 9 2 12 -1 20
-8 18 -7 -1 -11 4 -9 12 3 12 1 12 -13 1 -9 -7 -15 -9 -14 -4 1 5 -1 17 -6 28
-4 10 -4 21 2 25 5 3 9 18 9 33 0 23 -2 25 -15 15 -9 -6 -13 -7 -8 -2 4 4 -2
18 -12 29 -11 12 -21 37 -23 56 -5 46 -11 29 -38 -115 -26 -139 -76 -305 -92
-305 -6 0 -16 -7 -22 -15 -13 -16 -66 -28 -66 -14 0 5 -4 9 -10 9 -5 0 -10 -6
-10 -14 0 -8 -6 -16 -12 -19 -10 -3 -10 -7 -1 -19 17 -19 6 -29 -23 -22 -21 5
-24 2 -24 -20 0 -14 -4 -26 -9 -26 -13 0 -4 72 10 80 9 6 8 13 -3 28 -14 21
-15 21 -30 3 -9 -10 -19 -32 -22 -48 -4 -16 -15 -34 -25 -40 -17 -11 -20 -8
-26 23 -4 23 -2 41 6 51 13 14 5 25 -26 36 -6 2 -3 23 8 53 21 60 21 68 1 60
-12 -5 -11 1 6 29 19 31 20 36 6 58 -18 27 -29 134 -15 143 5 3 7 10 3 15 -3
5 -1 16 5 23 9 11 8 14 -6 12 -22 -1 -19 30 5 57 8 9 13 18 11 20 -2 1 -16 8
-30 16 -20 10 -25 18 -21 42 2 16 8 27 12 24 18 -11 21 17 4 30 -15 11 -16 14
-4 15 13 0 13 1 0 10 -9 6 -11 10 -3 10 7 0 10 7 7 15 -4 8 -10 12 -15 9 -5
-3 -9 0 -9 6 0 7 7 10 15 6 8 -3 19 2 24 12 9 15 10 14 11 -5 0 -13 5 -23 10
-23 11 0 13 20 4 44 -3 8 -12 12 -21 9 -10 -4 -14 -2 -9 5 3 6 2 13 -4 17 -13
8 -13 65 1 65 5 0 7 4 4 10 -3 5 0 7 8 4 8 -3 18 0 22 6 3 6 3 9 -2 8 -4 -2
-19 6 -33 16 -14 10 -17 16 -8 13 10 -4 20 -2 23 3 4 6 2 10 -3 10 -12 0 -30
42 -25 58 3 6 11 12 18 12 23 0 23 24 1 37 -12 7 -16 12 -9 13 6 0 9 9 6 21
-4 12 -11 18 -20 15 -9 -4 -11 -2 -7 6 12 19 11 62 0 71 -8 5 -6 12 5 19 14
10 14 15 -5 52 -12 23 -24 43 -29 44 -4 2 -5 7 -2 12 3 4 -3 7 -12 6 -9 0 -18
5 -20 12 -3 8 2 10 14 6 16 -5 16 -4 1 5 -10 7 -14 19 -10 33 3 13 1 19 -5 15
-6 -4 -15 5 -22 19 -16 37 -14 40 13 15 20 -19 24 -20 22 -6 -1 9 -9 20 -16
25 -17 11 -24 50 -8 50 6 0 3 7 -8 15 -17 13 -17 14 -1 15 22 0 22 26 0 38 -9
6 -14 16 -10 25 3 9 -1 21 -9 27 -16 14 -20 55 -4 45 6 -3 10 -1 10 4 0 6 -8
11 -17 12 -10 0 -13 3 -7 5 8 3 4 13 -9 28 -20 22 -32 70 -15 60 4 -3 8 -1 8
5 0 5 -6 11 -12 13 -10 4 -10 10 0 32 7 15 8 25 3 21 -5 -3 -12 -1 -15 4 -4 5
-2 12 4 16 15 9 12 25 -6 25 -8 0 -12 5 -9 10 3 6 0 10 -7 10 -8 1 -4 9 10 19
25 21 28 37 10 44 -8 3 -6 6 5 6 21 1 22 10 2 39 -11 15 -12 20 -3 17 21 -8
21 56 0 71 -14 11 -14 13 -2 14 12 0 11 3 -2 11 -21 12 -24 35 -5 42 17 6 -3
38 -34 54 -13 7 -19 13 -14 13 6 1 -5 7 -24 15 -18 8 -37 12 -42 9 -5 -3 -91
-6 -193 -7 -148 -2 -182 1 -178 11 2 7 10 11 17 8 8 -3 16 2 20 11 4 12 9 13
17 5 8 -8 15 -7 25 4 20 19 39 18 23 -1 -17 -20 -5 -32 15 -15 12 10 21 10 40
2 15 -7 26 -8 30 -2 4 6 13 10 21 10 8 0 12 -4 9 -10 -3 -5 -2 -10 4 -10 18 0
22 20 7 35 -9 9 -17 11 -21 5 -3 -5 -18 -10 -33 -9 -24 0 -25 1 -7 9 14 7 1 9
-45 9 -36 0 -76 3 -89 7 -16 5 -22 4 -18 -3 4 -6 -4 -14 -18 -17 -14 -4 -24
-10 -24 -14 6 -40 -10 -46 -171 -55 -191 -12 -326 -19 -405 -21 -49 -2 -101
-6 -114 -10 -16 -6 -21 -5 -17 3 4 6 1 11 -6 12 -57 3 -145 29 -159 45 -5 7
-19 10 -30 7 -16 -5 -18 -8 -7 -14 9 -6 7 -9 -9 -9 -12 0 -23 5 -25 11 -3 9
-10 8 -24 -1 -13 -8 -34 -10 -57 -6 l-36 7 17 29 c9 17 25 30 34 30 11 0 25
15 35 38 12 24 26 38 41 40 12 2 22 8 22 13 0 5 14 3 30 -6 29 -15 30 -19 30
-79 0 -60 1 -63 23 -61 40 4 42 6 22 15 -18 7 -21 16 -20 66 l0 59 38 3 c21 2
48 -3 60 -10 12 -8 42 -15 67 -16 25 0 46 -6 48 -12 4 -12 32 -14 32 -1 0 18
-27 29 -85 37 l-60 8 50 7 c28 4 253 8 500 9 248 1 495 6 550 10 64 5 -53 7
-320 6 -595 -2 -605 -1 -605 49 0 12 -7 28 -15 35 -13 11 -14 10 -9 -4 8 -22
-4 -20 -24 4 -16 19 -22 19 -106 10 -49 -6 -91 -8 -94 -6 -2 3 5 23 17 46 11
22 21 43 21 45 0 12 -24 3 -36 -12 -12 -17 -13 -16 -14 6 0 13 -8 30 -17 37
-22 16 -1 19 27 4 25 -13 70 -2 70 16 0 8 -5 14 -11 14 -8 0 -7 6 2 17 12 14
12 16 -1 11 -8 -2 -22 5 -32 16 -15 18 -19 19 -28 6 -8 -13 -11 -11 -16 8 -7
26 -11 27 -31 7 -10 -11 -14 -29 -11 -55 2 -22 0 -40 -5 -40 -4 0 -20 20 -35
45 -15 24 -30 45 -34 45 -11 0 -19 -38 -26 -120 l-7 -71 -45 68 c-25 37 -45
73 -45 78 -1 6 -6 9 -13 8 -7 -2 -11 3 -9 10 1 6 -4 11 -10 10 -7 -2 -12 3
-10 10 1 6 -3 11 -10 10 -7 -2 -10 6 -8 18 4 18 2 19 -11 8 -12 -10 -15 -10
-12 2 2 8 -3 13 -9 12 -7 -2 -12 3 -10 10 1 6 -4 11 -10 10 -7 -2 -12 3 -10
10 1 6 -4 11 -10 10 -7 -2 -12 3 -10 10 1 6 -4 11 -10 10 -7 -2 -12 3 -10 10
1 6 -4 11 -10 10 -7 -2 -12 3 -10 10 1 6 -4 11 -10 10 -7 -2 -12 3 -10 10 1 6
-4 11 -11 9 -6 -1 -11 4 -10 10 2 7 -3 12 -10 10 -8 -1 -11 1 -8 6 3 5 -5 19
-19 32 -14 13 -22 30 -20 42 3 16 2 18 -10 8 -12 -10 -13 -8 -10 10 3 18 2 20
-10 10 -12 -10 -13 -8 -10 10 3 18 2 20 -10 10 -12 -10 -13 -8 -10 10 3 18 2
20 -10 10 -12 -10 -13 -8 -10 10 3 18 2 20 -10 10 -12 -10 -13 -8 -10 10 3 18
2 20 -10 10 -12 -10 -13 -8 -10 10 3 18 2 20 -10 10 -12 -10 -13 -8 -10 10 3
18 2 20 -10 10 -12 -10 -13 -8 -10 10 3 18 2 20 -10 10 -12 -10 -13 -8 -10 10
3 18 2 20 -10 10 -12 -10 -13 -8 -10 10 3 18 2 20 -10 10 -12 -10 -13 -8 -10
9 2 12 0 19 -4 17 -4 -3 -19 7 -32 22 l-24 27 25 -20 c23 -18 23 -17 -3 11
-15 17 -24 34 -20 38 5 4 2 6 -5 4 -8 -1 -19 6 -25 17 -7 11 -20 27 -29 36
-10 9 -18 22 -18 28 0 7 -7 19 -15 28 -8 8 -13 19 -10 24 4 5 -1 9 -10 9 -9 0
-13 5 -10 10 3 6 -1 10 -9 10 -10 0 -13 7 -11 21 4 18 2 19 -12 7 -12 -9 -15
-9 -9 0 4 6 2 12 -3 12 -6 0 -11 -4 -11 -10z m850 -990 c18 -12 2 -12 -25 0
-13 6 -15 9 -5 9 8 0 22 -4 30 -9z m130 -26 c0 -20 -7 -17 -20 6 -9 16 -8 18
5 14 8 -4 15 -12 15 -20z m-34 5 c3 -6 2 -15 -2 -19 -12 -12 -38 5 -30 19 9
14 23 14 32 0z m1312 -314 c-3 -3 -9 2 -12 12 -6 14 -5 15 5 6 7 -7 10 -15 7
-18z m46 -101 c20 -19 20 -24 0 -24 -8 0 -13 4 -9 9 3 6 -3 14 -12 20 -10 6
-13 11 -6 11 6 0 19 -7 27 -16z m1 -84 c3 -6 -1 -7 -9 -4 -18 7 -21 14 -7 14
6 0 13 -4 16 -10z m185 -1520 c0 -5 -5 -10 -11 -10 -5 0 -7 5 -4 10 3 6 8 10
11 10 2 0 4 -4 4 -10z m0 -160 c0 -5 -2 -10 -4 -10 -3 0 -8 5 -11 10 -3 6 -1
10 4 10 6 0 11 -4 11 -10z m250 -304 c0 -18 -16 -29 -30 -21 -13 8 -1 35 16
35 8 0 14 -6 14 -14z m625 -55 c3 -5 2 -12 -3 -15 -5 -3 -9 1 -9 9 0 17 3 19
12 6z m-1458 -506 c34 -8 50 -32 33 -49 -18 -18 -515 -13 -565 6 -47 18 -52
40 -10 49 42 8 503 3 542 -6z"/>
<path d="M1887 4858 c-9 -52 -10 -151 -2 -173 5 -11 30 -52 57 -92 46 -69 60
-102 38 -88 -6 4 -8 11 -4 16 3 5 0 8 -8 7 -7 -2 -12 3 -11 10 2 6 -3 11 -10
10 -6 -2 -11 3 -9 10 1 6 -4 11 -10 10 -7 -2 -12 3 -10 10 1 6 -4 11 -10 10
-7 -2 -12 3 -11 10 2 6 -3 11 -10 10 -6 -2 -11 3 -10 10 2 6 -3 11 -10 10 -6
-2 -11 3 -9 10 1 6 -4 11 -10 10 -7 -2 -12 3 -10 10 1 8 -2 11 -9 6 -14 -8
179 -204 196 -198 8 3 15 42 19 106 l7 101 -34 51 c-19 28 -51 77 -72 109 -20
31 -41 57 -45 57 -4 0 -10 -15 -13 -32z m124 -375 c13 -16 12 -17 -3 -4 -10 7
-18 15 -18 17 0 8 8 3 21 -13z"/>
<path d="M2390 4254 c0 -8 5 -12 10 -9 6 3 10 10 10 16 0 5 -4 9 -10 9 -5 0
-10 -7 -10 -16z"/>
<path d="M2620 4155 c0 -8 5 -15 10 -15 6 0 10 7 10 15 0 8 -4 15 -10 15 -5 0
-10 -7 -10 -15z"/>
<path d="M2340 4035 c0 -8 5 -15 10 -15 6 0 10 7 10 15 0 8 -4 15 -10 15 -5 0
-10 -7 -10 -15z"/>
<path d="M2624 4007 c1 -15 9 -23 23 -25 27 -4 23 17 -6 35 -16 10 -18 8 -17
-10z"/>
<path d="M2964 4006 c19 -15 19 -16 -11 -16 -27 0 -30 -3 -25 -25 5 -30 7 -30
40 -6 28 19 32 20 99 24 52 3 69 17 22 18 -64 1 -104 5 -124 13 -20 8 -20 7
-1 -8z"/>
<path d="M3560 3980 c0 -5 5 -10 11 -10 5 0 7 5 4 10 -3 6 -8 10 -11 10 -2 0
-4 -4 -4 -10z"/>
<path d="M3036 3965 c-4 -12 -1 -16 11 -13 18 3 21 20 5 26 -5 1 -12 -4 -16
-13z"/>
<path d="M3616 3971 c-3 -5 0 -11 7 -14 8 -3 14 1 14 9 0 16 -13 19 -21 5z"/>
<path d="M2340 3959 c0 -5 5 -7 10 -4 6 3 10 8 10 11 0 2 -4 4 -10 4 -5 0 -10
-5 -10 -11z"/>
<path d="M3480 3950 c-13 -8 -13 -10 2 -10 9 0 20 5 23 10 8 13 -5 13 -25 0z"/>
<path d="M3701 3659 c9 -17 13 -19 20 -8 5 8 3 16 -4 21 -22 14 -28 8 -16 -13z"/>
<path d="M3680 3470 c0 -5 5 -10 11 -10 5 0 7 5 4 10 -3 6 -8 10 -11 10 -2 0
-4 -4 -4 -10z"/>
<path d="M3695 3401 c-3 -5 -1 -12 5 -16 5 -3 10 1 10 9 0 18 -6 21 -15 7z"/>
<path d="M3861 2844 c-7 -17 -8 -31 -2 -37 5 -5 12 3 16 23 4 17 5 33 3 36 -3
2 -10 -8 -17 -22z"/>
<path d="M3876 2785 c-11 -8 -15 -15 -10 -15 6 0 19 7 30 15 10 8 15 14 9 14
-5 0 -19 -6 -29 -14z"/>
<path d="M3882 2540 c-7 -11 -9 -20 -5 -19 20 3 33 -2 33 -14 0 -7 9 -13 21
-14 15 -1 19 2 15 13 -3 9 -6 18 -6 20 0 2 -9 4 -19 4 -11 0 -21 7 -23 15 -2
13 -6 12 -16 -5z"/>
<path d="M3874 2323 c5 -9 0 -13 -13 -13 -24 0 -27 -12 -8 -28 10 -9 17 -6 29
8 15 17 15 20 0 32 -11 9 -14 10 -8 1z"/>
<path d="M3900 2065 c0 -8 5 -15 10 -15 6 0 10 7 10 15 0 8 -4 15 -10 15 -5 0
-10 -7 -10 -15z"/>
<path d="M3990 2070 c-8 -5 -11 -12 -7 -16 4 -4 13 -2 19 4 15 15 7 24 -12 12z"/>
<path d="M4085 1850 c-7 -23 2 -43 16 -35 12 8 12 55 0 55 -5 0 -12 -9 -16
-20z"/>
<path d="M3870 1819 c0 -5 5 -7 10 -4 6 3 10 8 10 11 0 2 -4 4 -10 4 -5 0 -10
-5 -10 -11z"/>
<path d="M4045 1810 c-3 -5 -2 -10 4 -10 5 0 13 5 16 10 3 6 2 10 -4 10 -5 0
-13 -4 -16 -10z"/>
<path d="M3940 1794 c0 -8 5 -12 10 -9 6 3 10 10 10 16 0 5 -4 9 -10 9 -5 0
-10 -7 -10 -16z"/>
<path d="M4985 1361 c-3 -5 -2 -12 3 -15 5 -3 9 1 9 9 0 17 -3 19 -12 6z"/>
</g>
</svg>
